<svg width="51" height="50" viewBox="0 0 51 50" fill="none" xmlns="http://www.w3.org/2000/svg">
<rect width="51" height="50" rx="25" fill="white"/>
<path d="M8.06839 21.3201C11.2886 21.3231 14.4173 22.3787 17.043 24.2425C17.1656 24.3294 17.1656 24.3294 17.2908 24.418C17.9118 24.8707 18.479 25.3696 19.0328 25.9007C19.0819 25.947 19.1309 25.9934 19.1815 26.0412C22.5526 29.2383 24.2658 33.8476 24.4316 38.4471C24.4411 38.9634 24.4358 39.4787 24.4217 39.9948C23.7799 40.0267 23.223 39.9113 22.6029 39.7512C22.5016 39.7254 22.4003 39.6995 22.2959 39.6728C20.6527 39.2415 19.0658 38.6704 17.5404 37.9221C17.4692 37.8873 17.398 37.8525 17.3246 37.8166C15.5419 36.9358 13.9107 35.8463 12.4598 34.4841C12.2693 34.3067 12.0755 34.1366 11.8769 33.9685C10.3488 32.6398 9.27451 30.7783 8.42074 28.9682C8.35422 28.8279 8.35422 28.8279 8.28634 28.6848C7.54995 27.0533 7.00199 25.1109 7.00032 23.3131C7.00024 23.2589 7.00017 23.2047 7.00008 23.1489C7.00003 23.0356 7.00018 22.9223 7.00053 22.809C7.00097 22.6349 7.00053 22.4609 7 22.2868C7.00011 22.1774 7.00021 22.0681 7.00032 21.9555C7.00042 21.8554 7.00051 21.7553 7.00061 21.6522C7.02492 21.1344 7.66239 21.321 8.06839 21.3201Z" fill="#2F5341"/>
<path d="M41.0807 21.3304C41.1928 21.3301 41.3049 21.3298 41.417 21.3295C41.5748 21.3296 41.5748 21.3296 41.7358 21.3298C41.8319 21.3299 41.928 21.33 42.027 21.3301C42.2465 21.3408 42.2465 21.3408 42.3295 21.4237C42.6276 25.0344 41.4296 28.7793 39.3448 31.7041C39.3103 31.7526 39.2758 31.801 39.2403 31.8509C38.721 32.5704 38.1342 33.2202 37.5209 33.8597C37.4466 33.9383 37.3723 34.017 37.2958 34.098C36.7238 34.6893 36.1063 35.1934 35.4482 35.6836C35.4004 35.7194 35.3526 35.7553 35.3034 35.7922C34.5793 36.3316 33.8291 36.8133 33.0439 37.2589C32.9911 37.2891 32.9383 37.3193 32.8839 37.3504C31.3136 38.2404 29.6252 38.8833 27.9037 39.4144C27.848 39.4317 27.7923 39.449 27.7348 39.4668C26.8109 39.7502 25.8903 40.0159 24.9191 39.9948C24.7262 34.7467 26.455 29.9642 29.9884 26.1218C30.4204 25.6758 30.8998 25.291 31.3858 24.9058C31.4659 24.8399 31.5459 24.7741 31.6284 24.7063C34.2691 22.5857 37.6972 21.3204 41.0807 21.3304Z" fill="#2F5341"/>
<path d="M24.7708 10.0282C25.0848 10.1914 25.3046 10.4104 25.5513 10.6614C25.6275 10.7387 25.6275 10.7387 25.7053 10.8175C26.8922 12.0477 27.7459 13.518 28.3183 15.1228C28.3497 15.2102 28.3811 15.2976 28.4135 15.3877C29.3696 18.2559 28.9741 21.3956 27.655 24.0767C27.6162 24.1565 27.6162 24.1565 27.5766 24.2379C26.9426 25.5273 26.0291 26.8882 24.8362 27.7246C24.2837 27.723 23.9246 27.2272 23.5605 26.8638C21.2276 24.41 20.3544 21.1896 20.4316 17.8726C20.5383 15.2213 21.8418 12.68 23.6755 10.8116C23.7473 10.7376 23.8191 10.6635 23.8931 10.5872C24.507 9.96253 24.507 9.96253 24.7708 10.0282Z" fill="#2F5341"/>
</svg>
