<svg width="29" height="25" viewBox="0 0 29 25" fill="none" xmlns="http://www.w3.org/2000/svg">
<path d="M0.854712 9.55603C3.43084 9.55849 5.93386 10.4029 8.0344 11.894C8.13251 11.9635 8.13251 11.9635 8.2326 12.0344C8.7294 12.3965 9.18316 12.7956 9.6262 13.2205C9.66548 13.2576 9.70475 13.2947 9.74522 13.333C12.442 15.8906 13.8127 19.578 13.9453 23.2576C13.9528 23.6706 13.9486 24.0829 13.9373 24.4957C13.4239 24.5213 12.9784 24.429 12.4823 24.3009C12.4013 24.2802 12.3202 24.2595 12.2367 24.2382C10.9221 23.8931 9.65263 23.4363 8.43235 22.8376C8.37536 22.8098 8.31836 22.7819 8.25964 22.7532C6.8335 22.0486 5.52855 21.177 4.36787 20.0872C4.21546 19.9453 4.06043 19.8092 3.90152 19.6747C2.67902 18.6118 1.81961 17.1226 1.13659 15.6745C1.08337 15.5623 1.08337 15.5623 1.02907 15.4478C0.439962 14.1426 0.00159559 12.5887 0.000259082 11.1504C0.000195627 11.1071 0.000132173 11.0637 6.67946e-05 11.0191C2.20339e-05 10.9284 0.000141778 10.8378 0.000421009 10.7472C0.000779874 10.6079 0.000421349 10.4687 0 10.3294C8.5497e-05 10.2419 0.000170995 10.1545 0.000259082 10.0643C0.000333892 9.98429 0.000408702 9.90423 0.000485779 9.82175C0.0199329 9.40749 0.529911 9.5568 0.854712 9.55603Z" fill="#2F5341"/>
<path d="M27.2645 9.56431C27.3542 9.56408 27.4439 9.56382 27.5336 9.56354C27.6598 9.56367 27.6598 9.56367 27.7886 9.5638C27.8655 9.56387 27.9424 9.56395 28.0215 9.56402C28.1972 9.57261 28.1972 9.57261 28.2635 9.63893C28.502 12.5275 27.5437 15.5234 25.8758 17.8632C25.8483 17.902 25.8207 17.9407 25.7922 17.9807C25.3767 18.5563 24.9073 19.0761 24.4167 19.5877C24.3573 19.6506 24.2979 19.7135 24.2366 19.7784C23.7791 20.2514 23.285 20.6547 22.7586 21.0468C22.7203 21.0755 22.6821 21.1041 22.6427 21.1337C22.0634 21.5652 21.4632 21.9506 20.8351 22.307C20.7929 22.3312 20.7506 22.3554 20.7071 22.3803C19.4509 23.0923 18.1001 23.6066 16.723 24.0315C16.6784 24.0453 16.6338 24.0591 16.5878 24.0734C15.8487 24.3001 15.1122 24.5127 14.3353 24.4957C14.181 20.2973 15.564 16.4713 18.3907 13.3974C18.7363 13.0406 19.1198 12.7327 19.5086 12.4246C19.5727 12.3719 19.6367 12.3193 19.7027 12.265C21.8152 10.5685 24.5578 9.55633 27.2645 9.56431Z" fill="#2F5341"/>
<path d="M14.2166 0.522604C14.4678 0.653129 14.6437 0.828302 14.841 1.02911C14.902 1.09094 14.902 1.09094 14.9642 1.15402C15.9138 2.1382 16.5967 3.31439 17.0546 4.59823C17.0797 4.66816 17.1049 4.7381 17.1308 4.81016C17.8956 7.10473 17.5793 9.61645 16.524 11.7613C16.493 11.8252 16.493 11.8252 16.4613 11.8903C15.954 12.9218 15.2232 14.0105 14.2689 14.6796C13.827 14.6783 13.5396 14.2817 13.2484 13.991C11.3821 12.028 10.6835 9.45167 10.7453 6.79803C10.8306 4.677 11.8734 2.64401 13.3404 1.14932C13.3979 1.09007 13.4553 1.03082 13.5145 0.96978C14.0056 0.470034 14.0056 0.470034 14.2166 0.522604Z" fill="#2F5341"/>
</svg>
